<mxfile host="Electron" agent="Mozilla/5.0 (X11; Linux x86_64) AppleWebKit/537.36 (KHTML, like Gecko) draw.io/24.7.5 Chrome/126.0.6478.183 Electron/31.3.0 Safari/537.36" version="24.7.5">
  <diagram name="Page-1" id="T4EMSez1h_WsWpIHe2xb">
    <mxGraphModel dx="455" dy="270" grid="1" gridSize="10" guides="1" tooltips="1" connect="1" arrows="1" fold="1" page="1" pageScale="1" pageWidth="850" pageHeight="1100" math="0" shadow="0">
      <root>
        <mxCell id="0" />
        <mxCell id="1" parent="0" />
        <mxCell id="TTrM5zSfs0tgVKWZJh6H-62" value="" style="rounded=0;whiteSpace=wrap;html=1;" vertex="1" parent="1">
          <mxGeometry x="251" y="680" width="380" height="200" as="geometry" />
        </mxCell>
        <mxCell id="TTrM5zSfs0tgVKWZJh6H-63" value="Visualize" style="text;html=1;align=center;verticalAlign=middle;whiteSpace=wrap;rounded=0;" vertex="1" parent="1">
          <mxGeometry x="250" y="680" width="60" height="30" as="geometry" />
        </mxCell>
        <mxCell id="TTrM5zSfs0tgVKWZJh6H-60" value="" style="rounded=0;whiteSpace=wrap;html=1;" vertex="1" parent="1">
          <mxGeometry x="250" y="210" width="380" height="180" as="geometry" />
        </mxCell>
        <mxCell id="TTrM5zSfs0tgVKWZJh6H-58" value="" style="rounded=0;whiteSpace=wrap;html=1;" vertex="1" parent="1">
          <mxGeometry x="250" y="440" width="380" height="180" as="geometry" />
        </mxCell>
        <mxCell id="TTrM5zSfs0tgVKWZJh6H-4" value="" style="endArrow=none;html=1;rounded=0;strokeWidth=3;" edge="1" parent="1" target="TTrM5zSfs0tgVKWZJh6H-3">
          <mxGeometry width="50" height="50" relative="1" as="geometry">
            <mxPoint x="280" y="280" as="sourcePoint" />
            <mxPoint x="640" y="280" as="targetPoint" />
          </mxGeometry>
        </mxCell>
        <mxCell id="TTrM5zSfs0tgVKWZJh6H-3" value="" style="ellipse;whiteSpace=wrap;html=1;aspect=fixed;strokeWidth=3;" vertex="1" parent="1">
          <mxGeometry x="265" y="260" width="30" height="30" as="geometry" />
        </mxCell>
        <mxCell id="TTrM5zSfs0tgVKWZJh6H-6" value="" style="endArrow=none;html=1;rounded=0;strokeWidth=3;" edge="1" parent="1" source="TTrM5zSfs0tgVKWZJh6H-7" target="TTrM5zSfs0tgVKWZJh6H-5">
          <mxGeometry width="50" height="50" relative="1" as="geometry">
            <mxPoint x="290" y="275" as="sourcePoint" />
            <mxPoint x="640" y="280" as="targetPoint" />
          </mxGeometry>
        </mxCell>
        <mxCell id="TTrM5zSfs0tgVKWZJh6H-5" value="" style="ellipse;whiteSpace=wrap;html=1;aspect=fixed;strokeWidth=3;" vertex="1" parent="1">
          <mxGeometry x="585" y="260" width="30" height="30" as="geometry" />
        </mxCell>
        <mxCell id="TTrM5zSfs0tgVKWZJh6H-9" value="" style="endArrow=none;html=1;rounded=0;strokeWidth=3;" edge="1" parent="1" target="TTrM5zSfs0tgVKWZJh6H-10">
          <mxGeometry width="50" height="50" relative="1" as="geometry">
            <mxPoint x="280" y="360" as="sourcePoint" />
            <mxPoint x="640" y="360" as="targetPoint" />
          </mxGeometry>
        </mxCell>
        <mxCell id="TTrM5zSfs0tgVKWZJh6H-10" value="" style="ellipse;whiteSpace=wrap;html=1;aspect=fixed;strokeWidth=3;" vertex="1" parent="1">
          <mxGeometry x="265" y="340" width="30" height="30" as="geometry" />
        </mxCell>
        <mxCell id="TTrM5zSfs0tgVKWZJh6H-11" value="" style="endArrow=none;html=1;rounded=0;strokeWidth=3;" edge="1" parent="1" source="TTrM5zSfs0tgVKWZJh6H-13" target="TTrM5zSfs0tgVKWZJh6H-12">
          <mxGeometry width="50" height="50" relative="1" as="geometry">
            <mxPoint x="290" y="355" as="sourcePoint" />
            <mxPoint x="640" y="360" as="targetPoint" />
          </mxGeometry>
        </mxCell>
        <mxCell id="TTrM5zSfs0tgVKWZJh6H-12" value="" style="ellipse;whiteSpace=wrap;html=1;aspect=fixed;strokeWidth=3;" vertex="1" parent="1">
          <mxGeometry x="585" y="340" width="30" height="30" as="geometry" />
        </mxCell>
        <mxCell id="TTrM5zSfs0tgVKWZJh6H-17" value="" style="endArrow=none;html=1;rounded=0;strokeWidth=3;" edge="1" parent="1" source="TTrM5zSfs0tgVKWZJh6H-10" target="TTrM5zSfs0tgVKWZJh6H-13">
          <mxGeometry width="50" height="50" relative="1" as="geometry">
            <mxPoint x="295" y="355" as="sourcePoint" />
            <mxPoint x="625" y="355" as="targetPoint" />
          </mxGeometry>
        </mxCell>
        <mxCell id="TTrM5zSfs0tgVKWZJh6H-13" value="" style="ellipse;whiteSpace=wrap;html=1;aspect=fixed;strokeWidth=3;" vertex="1" parent="1">
          <mxGeometry x="425" y="340" width="30" height="30" as="geometry" />
        </mxCell>
        <mxCell id="TTrM5zSfs0tgVKWZJh6H-16" value="" style="ellipse;whiteSpace=wrap;html=1;aspect=fixed;strokeWidth=3;" vertex="1" parent="1">
          <mxGeometry x="390" y="345" width="20" height="20" as="geometry" />
        </mxCell>
        <mxCell id="TTrM5zSfs0tgVKWZJh6H-15" value="" style="ellipse;whiteSpace=wrap;html=1;aspect=fixed;strokeWidth=3;" vertex="1" parent="1">
          <mxGeometry x="349" y="345" width="20" height="20" as="geometry" />
        </mxCell>
        <mxCell id="TTrM5zSfs0tgVKWZJh6H-14" value="" style="ellipse;whiteSpace=wrap;html=1;aspect=fixed;strokeWidth=3;" vertex="1" parent="1">
          <mxGeometry x="310" y="345" width="20" height="20" as="geometry" />
        </mxCell>
        <mxCell id="TTrM5zSfs0tgVKWZJh6H-18" value="" style="ellipse;whiteSpace=wrap;html=1;aspect=fixed;strokeWidth=3;" vertex="1" parent="1">
          <mxGeometry x="550" y="345" width="20" height="20" as="geometry" />
        </mxCell>
        <mxCell id="TTrM5zSfs0tgVKWZJh6H-19" value="" style="ellipse;whiteSpace=wrap;html=1;aspect=fixed;strokeWidth=3;" vertex="1" parent="1">
          <mxGeometry x="509" y="345" width="20" height="20" as="geometry" />
        </mxCell>
        <mxCell id="TTrM5zSfs0tgVKWZJh6H-20" value="" style="ellipse;whiteSpace=wrap;html=1;aspect=fixed;strokeWidth=3;" vertex="1" parent="1">
          <mxGeometry x="470" y="345" width="20" height="20" as="geometry" />
        </mxCell>
        <mxCell id="TTrM5zSfs0tgVKWZJh6H-21" value="" style="endArrow=none;html=1;rounded=0;strokeWidth=3;" edge="1" parent="1" target="TTrM5zSfs0tgVKWZJh6H-22">
          <mxGeometry width="50" height="50" relative="1" as="geometry">
            <mxPoint x="280" y="520" as="sourcePoint" />
            <mxPoint x="640" y="520" as="targetPoint" />
          </mxGeometry>
        </mxCell>
        <mxCell id="TTrM5zSfs0tgVKWZJh6H-22" value="" style="ellipse;whiteSpace=wrap;html=1;aspect=fixed;strokeWidth=3;" vertex="1" parent="1">
          <mxGeometry x="269" y="504" width="20" height="20" as="geometry" />
        </mxCell>
        <mxCell id="TTrM5zSfs0tgVKWZJh6H-23" value="" style="endArrow=none;html=1;rounded=0;strokeWidth=3;" edge="1" parent="1" source="TTrM5zSfs0tgVKWZJh6H-26" target="TTrM5zSfs0tgVKWZJh6H-24">
          <mxGeometry width="50" height="50" relative="1" as="geometry">
            <mxPoint x="290" y="515" as="sourcePoint" />
            <mxPoint x="640" y="520" as="targetPoint" />
          </mxGeometry>
        </mxCell>
        <mxCell id="TTrM5zSfs0tgVKWZJh6H-24" value="" style="ellipse;whiteSpace=wrap;html=1;aspect=fixed;strokeWidth=3;" vertex="1" parent="1">
          <mxGeometry x="590" y="504" width="20" height="20" as="geometry" />
        </mxCell>
        <mxCell id="TTrM5zSfs0tgVKWZJh6H-25" value="" style="endArrow=none;html=1;rounded=0;strokeWidth=3;" edge="1" parent="1" source="TTrM5zSfs0tgVKWZJh6H-22" target="TTrM5zSfs0tgVKWZJh6H-26">
          <mxGeometry width="50" height="50" relative="1" as="geometry">
            <mxPoint x="295" y="515" as="sourcePoint" />
            <mxPoint x="625" y="515" as="targetPoint" />
          </mxGeometry>
        </mxCell>
        <mxCell id="TTrM5zSfs0tgVKWZJh6H-26" value="" style="ellipse;whiteSpace=wrap;html=1;aspect=fixed;strokeWidth=3;" vertex="1" parent="1">
          <mxGeometry x="430" y="504" width="20" height="20" as="geometry" />
        </mxCell>
        <mxCell id="TTrM5zSfs0tgVKWZJh6H-27" value="" style="ellipse;whiteSpace=wrap;html=1;aspect=fixed;strokeWidth=2;dashed=1;" vertex="1" parent="1">
          <mxGeometry x="390" y="505" width="20" height="20" as="geometry" />
        </mxCell>
        <mxCell id="TTrM5zSfs0tgVKWZJh6H-28" value="" style="ellipse;whiteSpace=wrap;html=1;aspect=fixed;strokeWidth=3;" vertex="1" parent="1">
          <mxGeometry x="349" y="505" width="20" height="20" as="geometry" />
        </mxCell>
        <mxCell id="TTrM5zSfs0tgVKWZJh6H-29" value="" style="ellipse;whiteSpace=wrap;html=1;aspect=fixed;strokeWidth=2;dashed=1;" vertex="1" parent="1">
          <mxGeometry x="310" y="505" width="20" height="20" as="geometry" />
        </mxCell>
        <mxCell id="TTrM5zSfs0tgVKWZJh6H-30" value="" style="ellipse;whiteSpace=wrap;html=1;aspect=fixed;strokeWidth=3;" vertex="1" parent="1">
          <mxGeometry x="550" y="505" width="20" height="20" as="geometry" />
        </mxCell>
        <mxCell id="TTrM5zSfs0tgVKWZJh6H-31" value="" style="ellipse;whiteSpace=wrap;html=1;aspect=fixed;strokeWidth=2;dashed=1;" vertex="1" parent="1">
          <mxGeometry x="509" y="505" width="20" height="20" as="geometry" />
        </mxCell>
        <mxCell id="TTrM5zSfs0tgVKWZJh6H-32" value="" style="ellipse;whiteSpace=wrap;html=1;aspect=fixed;strokeWidth=3;" vertex="1" parent="1">
          <mxGeometry x="470" y="505" width="20" height="20" as="geometry" />
        </mxCell>
        <mxCell id="TTrM5zSfs0tgVKWZJh6H-33" value="" style="endArrow=none;html=1;rounded=0;strokeWidth=3;" edge="1" parent="1" target="TTrM5zSfs0tgVKWZJh6H-34">
          <mxGeometry width="50" height="50" relative="1" as="geometry">
            <mxPoint x="281" y="590" as="sourcePoint" />
            <mxPoint x="641" y="590" as="targetPoint" />
          </mxGeometry>
        </mxCell>
        <mxCell id="TTrM5zSfs0tgVKWZJh6H-34" value="" style="ellipse;whiteSpace=wrap;html=1;aspect=fixed;strokeWidth=3;" vertex="1" parent="1">
          <mxGeometry x="270" y="574" width="20" height="20" as="geometry" />
        </mxCell>
        <mxCell id="TTrM5zSfs0tgVKWZJh6H-35" value="" style="endArrow=none;html=1;rounded=0;strokeWidth=3;" edge="1" parent="1" source="TTrM5zSfs0tgVKWZJh6H-38" target="TTrM5zSfs0tgVKWZJh6H-36">
          <mxGeometry width="50" height="50" relative="1" as="geometry">
            <mxPoint x="291" y="585" as="sourcePoint" />
            <mxPoint x="641" y="590" as="targetPoint" />
          </mxGeometry>
        </mxCell>
        <mxCell id="TTrM5zSfs0tgVKWZJh6H-36" value="" style="ellipse;whiteSpace=wrap;html=1;aspect=fixed;strokeWidth=3;" vertex="1" parent="1">
          <mxGeometry x="591" y="574" width="20" height="20" as="geometry" />
        </mxCell>
        <mxCell id="TTrM5zSfs0tgVKWZJh6H-37" value="" style="endArrow=none;html=1;rounded=0;strokeWidth=3;" edge="1" parent="1" source="TTrM5zSfs0tgVKWZJh6H-34" target="TTrM5zSfs0tgVKWZJh6H-38">
          <mxGeometry width="50" height="50" relative="1" as="geometry">
            <mxPoint x="296" y="585" as="sourcePoint" />
            <mxPoint x="626" y="585" as="targetPoint" />
          </mxGeometry>
        </mxCell>
        <mxCell id="TTrM5zSfs0tgVKWZJh6H-38" value="" style="ellipse;whiteSpace=wrap;html=1;aspect=fixed;strokeWidth=3;" vertex="1" parent="1">
          <mxGeometry x="431" y="574" width="20" height="20" as="geometry" />
        </mxCell>
        <mxCell id="TTrM5zSfs0tgVKWZJh6H-39" value="" style="ellipse;whiteSpace=wrap;html=1;aspect=fixed;strokeWidth=3;" vertex="1" parent="1">
          <mxGeometry x="391" y="575" width="20" height="20" as="geometry" />
        </mxCell>
        <mxCell id="TTrM5zSfs0tgVKWZJh6H-40" value="" style="ellipse;whiteSpace=wrap;html=1;aspect=fixed;strokeWidth=3;" vertex="1" parent="1">
          <mxGeometry x="350" y="575" width="20" height="20" as="geometry" />
        </mxCell>
        <mxCell id="TTrM5zSfs0tgVKWZJh6H-41" value="" style="ellipse;whiteSpace=wrap;html=1;aspect=fixed;strokeWidth=3;" vertex="1" parent="1">
          <mxGeometry x="311" y="575" width="20" height="20" as="geometry" />
        </mxCell>
        <mxCell id="TTrM5zSfs0tgVKWZJh6H-42" value="" style="ellipse;whiteSpace=wrap;html=1;aspect=fixed;strokeWidth=3;" vertex="1" parent="1">
          <mxGeometry x="551" y="575" width="20" height="20" as="geometry" />
        </mxCell>
        <mxCell id="TTrM5zSfs0tgVKWZJh6H-43" value="" style="ellipse;whiteSpace=wrap;html=1;aspect=fixed;strokeWidth=3;" vertex="1" parent="1">
          <mxGeometry x="510" y="575" width="20" height="20" as="geometry" />
        </mxCell>
        <mxCell id="TTrM5zSfs0tgVKWZJh6H-44" value="" style="ellipse;whiteSpace=wrap;html=1;aspect=fixed;strokeWidth=3;" vertex="1" parent="1">
          <mxGeometry x="471" y="575" width="20" height="20" as="geometry" />
        </mxCell>
        <mxCell id="TTrM5zSfs0tgVKWZJh6H-45" value="" style="endArrow=none;html=1;rounded=0;strokeWidth=3;" edge="1" parent="1" source="TTrM5zSfs0tgVKWZJh6H-3" target="TTrM5zSfs0tgVKWZJh6H-7">
          <mxGeometry width="50" height="50" relative="1" as="geometry">
            <mxPoint x="295" y="275" as="sourcePoint" />
            <mxPoint x="585" y="275" as="targetPoint" />
          </mxGeometry>
        </mxCell>
        <mxCell id="TTrM5zSfs0tgVKWZJh6H-7" value="" style="ellipse;whiteSpace=wrap;html=1;aspect=fixed;strokeWidth=3;" vertex="1" parent="1">
          <mxGeometry x="425" y="260" width="30" height="30" as="geometry" />
        </mxCell>
        <mxCell id="TTrM5zSfs0tgVKWZJh6H-46" value="" style="endArrow=none;html=1;rounded=0;strokeWidth=3;" edge="1" parent="1" target="TTrM5zSfs0tgVKWZJh6H-47">
          <mxGeometry width="50" height="50" relative="1" as="geometry">
            <mxPoint x="281" y="760" as="sourcePoint" />
            <mxPoint x="641" y="760" as="targetPoint" />
          </mxGeometry>
        </mxCell>
        <mxCell id="TTrM5zSfs0tgVKWZJh6H-47" value="" style="ellipse;whiteSpace=wrap;html=1;aspect=fixed;strokeWidth=3;" vertex="1" parent="1">
          <mxGeometry x="270" y="744" width="20" height="20" as="geometry" />
        </mxCell>
        <mxCell id="TTrM5zSfs0tgVKWZJh6H-48" value="" style="endArrow=none;html=1;rounded=0;strokeWidth=3;" edge="1" parent="1" source="TTrM5zSfs0tgVKWZJh6H-51" target="TTrM5zSfs0tgVKWZJh6H-49">
          <mxGeometry width="50" height="50" relative="1" as="geometry">
            <mxPoint x="291" y="755" as="sourcePoint" />
            <mxPoint x="641" y="760" as="targetPoint" />
          </mxGeometry>
        </mxCell>
        <mxCell id="TTrM5zSfs0tgVKWZJh6H-49" value="" style="ellipse;whiteSpace=wrap;html=1;aspect=fixed;strokeWidth=3;" vertex="1" parent="1">
          <mxGeometry x="591" y="744" width="20" height="20" as="geometry" />
        </mxCell>
        <mxCell id="TTrM5zSfs0tgVKWZJh6H-50" value="" style="endArrow=none;html=1;rounded=0;strokeWidth=3;" edge="1" parent="1" source="TTrM5zSfs0tgVKWZJh6H-47" target="TTrM5zSfs0tgVKWZJh6H-51">
          <mxGeometry width="50" height="50" relative="1" as="geometry">
            <mxPoint x="296" y="755" as="sourcePoint" />
            <mxPoint x="626" y="755" as="targetPoint" />
          </mxGeometry>
        </mxCell>
        <mxCell id="TTrM5zSfs0tgVKWZJh6H-51" value="" style="ellipse;whiteSpace=wrap;html=1;aspect=fixed;strokeWidth=3;" vertex="1" parent="1">
          <mxGeometry x="431" y="744" width="20" height="20" as="geometry" />
        </mxCell>
        <mxCell id="TTrM5zSfs0tgVKWZJh6H-52" value="" style="ellipse;whiteSpace=wrap;html=1;aspect=fixed;strokeWidth=3;" vertex="1" parent="1">
          <mxGeometry x="391" y="745" width="20" height="20" as="geometry" />
        </mxCell>
        <mxCell id="TTrM5zSfs0tgVKWZJh6H-53" value="" style="ellipse;whiteSpace=wrap;html=1;aspect=fixed;strokeWidth=3;" vertex="1" parent="1">
          <mxGeometry x="350" y="745" width="20" height="20" as="geometry" />
        </mxCell>
        <mxCell id="TTrM5zSfs0tgVKWZJh6H-54" value="" style="ellipse;whiteSpace=wrap;html=1;aspect=fixed;strokeWidth=3;" vertex="1" parent="1">
          <mxGeometry x="311" y="745" width="20" height="20" as="geometry" />
        </mxCell>
        <mxCell id="TTrM5zSfs0tgVKWZJh6H-55" value="" style="ellipse;whiteSpace=wrap;html=1;aspect=fixed;strokeWidth=3;" vertex="1" parent="1">
          <mxGeometry x="551" y="745" width="20" height="20" as="geometry" />
        </mxCell>
        <mxCell id="TTrM5zSfs0tgVKWZJh6H-56" value="" style="ellipse;whiteSpace=wrap;html=1;aspect=fixed;strokeWidth=3;" vertex="1" parent="1">
          <mxGeometry x="510" y="745" width="20" height="20" as="geometry" />
        </mxCell>
        <mxCell id="TTrM5zSfs0tgVKWZJh6H-57" value="" style="ellipse;whiteSpace=wrap;html=1;aspect=fixed;strokeWidth=3;" vertex="1" parent="1">
          <mxGeometry x="471" y="745" width="20" height="20" as="geometry" />
        </mxCell>
        <mxCell id="TTrM5zSfs0tgVKWZJh6H-59" value="Fill" style="text;html=1;align=center;verticalAlign=middle;whiteSpace=wrap;rounded=0;" vertex="1" parent="1">
          <mxGeometry x="251" y="440" width="60" height="30" as="geometry" />
        </mxCell>
        <mxCell id="TTrM5zSfs0tgVKWZJh6H-61" value="Zoom" style="text;html=1;align=center;verticalAlign=middle;whiteSpace=wrap;rounded=0;" vertex="1" parent="1">
          <mxGeometry x="251" y="210" width="60" height="30" as="geometry" />
        </mxCell>
        <mxCell id="TTrM5zSfs0tgVKWZJh6H-64" value="" style="endArrow=none;html=1;rounded=0;strokeWidth=3;" edge="1" parent="1" target="TTrM5zSfs0tgVKWZJh6H-65">
          <mxGeometry width="50" height="50" relative="1" as="geometry">
            <mxPoint x="281" y="830" as="sourcePoint" />
            <mxPoint x="641" y="830" as="targetPoint" />
          </mxGeometry>
        </mxCell>
        <mxCell id="TTrM5zSfs0tgVKWZJh6H-65" value="" style="ellipse;whiteSpace=wrap;html=1;aspect=fixed;strokeWidth=3;" vertex="1" parent="1">
          <mxGeometry x="270" y="814" width="20" height="20" as="geometry" />
        </mxCell>
        <mxCell id="TTrM5zSfs0tgVKWZJh6H-66" value="" style="endArrow=none;html=1;rounded=0;strokeWidth=3;" edge="1" parent="1" source="TTrM5zSfs0tgVKWZJh6H-69" target="TTrM5zSfs0tgVKWZJh6H-67">
          <mxGeometry width="50" height="50" relative="1" as="geometry">
            <mxPoint x="291" y="825" as="sourcePoint" />
            <mxPoint x="641" y="830" as="targetPoint" />
            <Array as="points">
              <mxPoint x="480" y="824" />
              <mxPoint x="520" y="860" />
              <mxPoint x="560" y="810" />
            </Array>
          </mxGeometry>
        </mxCell>
        <mxCell id="TTrM5zSfs0tgVKWZJh6H-67" value="" style="ellipse;whiteSpace=wrap;html=1;aspect=fixed;strokeWidth=3;" vertex="1" parent="1">
          <mxGeometry x="591" y="814" width="20" height="20" as="geometry" />
        </mxCell>
        <mxCell id="TTrM5zSfs0tgVKWZJh6H-68" value="" style="endArrow=none;html=1;rounded=0;strokeWidth=3;" edge="1" parent="1" source="TTrM5zSfs0tgVKWZJh6H-65" target="TTrM5zSfs0tgVKWZJh6H-69">
          <mxGeometry width="50" height="50" relative="1" as="geometry">
            <mxPoint x="296" y="825" as="sourcePoint" />
            <mxPoint x="626" y="825" as="targetPoint" />
            <Array as="points">
              <mxPoint x="320" y="860" />
              <mxPoint x="360" y="800" />
              <mxPoint x="400" y="800" />
            </Array>
          </mxGeometry>
        </mxCell>
        <mxCell id="TTrM5zSfs0tgVKWZJh6H-69" value="" style="ellipse;whiteSpace=wrap;html=1;aspect=fixed;strokeWidth=3;" vertex="1" parent="1">
          <mxGeometry x="431" y="830" width="20" height="20" as="geometry" />
        </mxCell>
        <mxCell id="TTrM5zSfs0tgVKWZJh6H-70" value="" style="ellipse;whiteSpace=wrap;html=1;aspect=fixed;strokeWidth=3;" vertex="1" parent="1">
          <mxGeometry x="391" y="790" width="20" height="20" as="geometry" />
        </mxCell>
        <mxCell id="TTrM5zSfs0tgVKWZJh6H-71" value="" style="ellipse;whiteSpace=wrap;html=1;aspect=fixed;strokeWidth=3;" vertex="1" parent="1">
          <mxGeometry x="349" y="795" width="20" height="20" as="geometry" />
        </mxCell>
        <mxCell id="TTrM5zSfs0tgVKWZJh6H-72" value="" style="ellipse;whiteSpace=wrap;html=1;aspect=fixed;strokeWidth=3;" vertex="1" parent="1">
          <mxGeometry x="311" y="850" width="20" height="20" as="geometry" />
        </mxCell>
        <mxCell id="TTrM5zSfs0tgVKWZJh6H-73" value="" style="ellipse;whiteSpace=wrap;html=1;aspect=fixed;strokeWidth=3;" vertex="1" parent="1">
          <mxGeometry x="551" y="805" width="20" height="20" as="geometry" />
        </mxCell>
        <mxCell id="TTrM5zSfs0tgVKWZJh6H-74" value="" style="ellipse;whiteSpace=wrap;html=1;aspect=fixed;strokeWidth=3;" vertex="1" parent="1">
          <mxGeometry x="510" y="845" width="20" height="20" as="geometry" />
        </mxCell>
        <mxCell id="TTrM5zSfs0tgVKWZJh6H-75" value="" style="ellipse;whiteSpace=wrap;html=1;aspect=fixed;strokeWidth=3;" vertex="1" parent="1">
          <mxGeometry x="471" y="814" width="20" height="20" as="geometry" />
        </mxCell>
      </root>
    </mxGraphModel>
  </diagram>
</mxfile>
